<?xml version="1.0" encoding="UTF-8"?>
<svg version="1.1" xmlns="http://www.w3.org/2000/svg" width="32" height="32">
<path d="M0 0 C10.56 0 21.12 0 32 0 C32 10.56 32 21.12 32 32 C21.44 32 10.88 32 0 32 C0 21.44 0 10.88 0 0 Z " fill="#076938" transform="translate(0,0)"/>
<path d="M0 0 C10.56 0 21.12 0 32 0 C32 0.66 32 1.32 32 2 C31.38125 2.433125 30.7625 2.86625 30.125 3.3125 C27.57957488 5.33386701 26.87422594 6.90047168 26 10 C26.33 10.66 26.66 11.32 27 12 C25.35 12 23.7 12 22 12 C22 12.66 22 13.32 22 14 C23.98 14 25.96 14 28 14 C28.33 14.66 28.66 15.32 29 16 C27.35 16.33 25.7 16.66 24 17 C24.33 19.31 24.66 21.62 25 24 C23.68 23.67 22.36 23.34 21 23 C21 22.34 21 21.68 21 21 C20.01 21.33 19.02 21.66 18 22 C17.67 23.98 17.34 25.96 17 28 C16.34 27.67 15.68 27.34 15 27 C15 25.35 15 23.7 15 22 C11.27385847 23.11854586 11.27385847 23.11854586 9 26 C8.01 26 7.02 26 6 26 C6 24.02 6 22.04 6 20 C7.32 19.67 8.64 19.34 10 19 C9.67 18.34 9.34 17.68 9 17 C7.02 17 5.04 17 3 17 C3 16.01 3 15.02 3 14 C4.98 14 6.96 14 9 14 C8.01 12.02 7.02 10.04 6 8 C4.68 8 3.36 8 2 8 C2 7.01 2 6.02 2 5 C1.34 5 0.68 5 0 5 C0 3.35 0 1.7 0 0 Z " fill="#0C6939" transform="translate(0,0)"/>
<path d="M0 0 C2 1 2 1 3.0625 4 C3.371875 4.99 3.68125 5.98 4 7 C4.33 7.33 4.66 7.66 5 8 C5.1875 10.4375 5.1875 10.4375 5 13 C4.34 13.66 3.68 14.32 3 15 C0.375 14.625 0.375 14.625 -2 14 C-1.67 12.68 -1.34 11.36 -1 10 C-0.34 10 0.32 10 1 10 C1 10.66 1 11.32 1 12 C1.66 12.33 2.32 12.66 3 13 C2.67 11.68 2.34 10.36 2 9 C0.68 9.33 -0.64 9.66 -2 10 C-2 11.65 -2 13.3 -2 15 C0.832168 15.33448259 0.832168 15.33448259 4 15 C5.35368596 13.68733482 6.68799596 12.35432675 8 11 C10.75 10.75 10.75 10.75 13 11 C13.33 11.66 13.66 12.32 14 13 C12.35 13.33 10.7 13.66 9 14 C9.33 16.31 9.66 18.62 10 21 C8.68 20.67 7.36 20.34 6 20 C6 19.34 6 18.68 6 18 C5.01 18.33 4.02 18.66 3 19 C2.67 20.98 2.34 22.96 2 25 C1.34 24.67 0.68 24.34 0 24 C0 22.35 0 20.7 0 19 C-3.72614153 20.11854586 -3.72614153 20.11854586 -6 23 C-6.99 23 -7.98 23 -9 23 C-9 21.02 -9 19.04 -9 17 C-7.68 16.67 -6.36 16.34 -5 16 C-5.33 15.34 -5.66 14.68 -6 14 C-7.98 14 -9.96 14 -12 14 C-12 13.01 -12 12.02 -12 11 C-10.02 11 -8.04 11 -6 11 C-6.99 8.69 -7.98 6.38 -9 4 C-7.88625 4.495 -7.88625 4.495 -6.75 5 C-3.86116688 6.22782871 -3.86116688 6.22782871 0 6 C0 4.02 0 2.04 0 0 Z " fill="#C8702B" transform="translate(15,3)"/>
<path d="M0 0 C2 1 2 1 3.0625 4 C3.371875 4.99 3.68125 5.98 4 7 C4.33 7.33 4.66 7.66 5 8 C5.1875 10.4375 5.1875 10.4375 5 13 C4.34 13.66 3.68 14.32 3 15 C0.375 14.625 0.375 14.625 -2 14 C-1.67 12.68 -1.34 11.36 -1 10 C-0.34 10 0.32 10 1 10 C1 10.66 1 11.32 1 12 C1.66 12.33 2.32 12.66 3 13 C2.67 11.68 2.34 10.36 2 9 C0.03243548 9.03122943 0.03243548 9.03122943 -2 10 C-3.3045656 12.99615946 -3.3045656 12.99615946 -4 16 C-4.66 15.34 -5.32 14.68 -6 14 C-9.08347826 13.83318891 -9.08347826 13.83318891 -12 14 C-12 13.01 -12 12.02 -12 11 C-10.02 11 -8.04 11 -6 11 C-6.99 8.69 -7.98 6.38 -9 4 C-7.88625 4.495 -7.88625 4.495 -6.75 5 C-3.86116688 6.22782871 -3.86116688 6.22782871 0 6 C0 4.02 0 2.04 0 0 Z " fill="#BB712A" transform="translate(15,3)"/>
<path d="M0 0 C-0.33 0.99 -0.66 1.98 -1 3 C-0.01 3.33 0.98 3.66 2 4 C0.35 4 -1.3 4 -3 4 C-2.67 5.32 -2.34 6.64 -2 8 C-4.50584896 10.31309135 -5.72285889 10.97826344 -9.1875 11.25 C-12 11 -12 11 -13 10 C-13.1875 7.5625 -13.1875 7.5625 -13 5 C-12.34 4.34 -11.68 3.68 -11 3 C-8.875 3.375 -8.875 3.375 -7 4 C-7 5.32 -7 6.64 -7 8 C-7.99 7.67 -8.98 7.34 -10 7 C-9.67 6.34 -9.34 5.68 -9 5 C-9.99 5.495 -9.99 5.495 -11 6 C-11 6.99 -11 7.98 -11 9 C-9.35 8.67 -7.7 8.34 -6 8 C-5.84850702 4.37114676 -5.84850702 4.37114676 -7 1 C-3.375 -1.125 -3.375 -1.125 0 0 Z " fill="#156E2D" transform="translate(25,8)"/>
<path d="M0 0 C2.475 0.99 2.475 0.99 5 2 C4.125 7.75 4.125 7.75 3 10 C1.02 10 -0.96 10 -3 10 C-3 9.01 -3 8.02 -3 7 C-1.02 7 0.96 7 3 7 C2.01 4.69 1.02 2.38 0 0 Z " fill="#9E6D31" transform="translate(6,7)"/>
<path d="M0 0 C2.875 -0.125 2.875 -0.125 6 0 C6.66 0.66 7.32 1.32 8 2 C7.0409375 2.433125 7.0409375 2.433125 6.0625 2.875 C3.84793921 3.82823451 3.84793921 3.82823451 3 6 C2.01 6 1.02 6 0 6 C0 4.02 0 2.04 0 0 Z " fill="#676E32" transform="translate(6,20)"/>
<path d="M0 0 C1.19105377 3.5731613 1.0704232 5.40643641 0 9 C-2.5625 10.375 -2.5625 10.375 -5 11 C-5.33 10.34 -5.66 9.68 -6 9 C-5.34 9 -4.68 9 -4 9 C-4 6.69 -4 4.38 -4 2 C-3.34 3.32 -2.68 4.64 -2 6 C-1.34 4.02 -0.68 2.04 0 0 Z " fill="#286930" transform="translate(18,21)"/>
<path d="M0 0 C-0.33 0.99 -0.66 1.98 -1 3 C-0.01 3.33 0.98 3.66 2 4 C0.35 4 -1.3 4 -3 4 C-3.33 4.66 -3.66 5.32 -4 6 C-4.99 4.35 -5.98 2.7 -7 1 C-3.375 -1.125 -3.375 -1.125 0 0 Z " fill="#606B35" transform="translate(25,8)"/>
<path d="M0 0 C0.66 0 1.32 0 2 0 C1.67 3.63 1.34 7.26 1 11 C-0.65 11 -2.3 11 -4 11 C-3.67 10.34 -3.34 9.68 -3 9 C-2.34 9 -1.68 9 -1 9 C-0.67 6.03 -0.34 3.06 0 0 Z " fill="#026A3D" transform="translate(19,21)"/>
<path d="M0 0 C1.65 0 3.3 0 5 0 C5.33 0.66 5.66 1.32 6 2 C4.35 2.33 2.7 2.66 1 3 C0.67 3.99 0.34 4.98 0 6 C-0.66 6 -1.32 6 -2 6 C-1.34 4.02 -0.68 2.04 0 0 Z " fill="#826A38" transform="translate(23,14)"/>
<path d="M0 0 C0.66 0 1.32 0 2 0 C2 0.66 2 1.32 2 2 C2.99 2 3.98 2 5 2 C4.67 2.99 4.34 3.98 4 5 C2.35 4.67 0.7 4.34 -1 4 C-0.67 2.68 -0.34 1.36 0 0 Z " fill="#D27128" transform="translate(14,13)"/>
<path d="M0 0 C1.32 0.33 2.64 0.66 4 1 C4 2.32 4 3.64 4 5 C3.01 4.67 2.02 4.34 1 4 C1.33 3.34 1.66 2.68 2 2 C0.68 2.33 -0.64 2.66 -2 3 C-1.34 2.01 -0.68 1.02 0 0 Z " fill="#26693C" transform="translate(14,11)"/>
</svg>
